<?xml version="1.0" encoding="utf-8"?>
<!-- Generator: Adobe Illustrator 23.0.1, SVG Export Plug-In . SVG Version: 6.00 Build 0)  -->
<svg version="1.1" id="Layer_1" xmlns="http://www.w3.org/2000/svg" xmlns:xlink="http://www.w3.org/1999/xlink" x="0px" y="0px"
	 viewBox="0 0 595.28 841.89" style="enable-background:new 0 0 595.28 841.89;" xml:space="preserve">
<style type="text/css">
	.st0{fill:#3DB879;}
	.st1{fill:#04733B;}
	.st2{fill:#F6F3D0;}
	.st3{fill:#3D3D3C;}
	.st4{fill:none;}
	.st5{fill:#D6D3B2;}
</style>
<g>
	<g>
		<g>
			<path class="st0" d="M333.38,393.2c0,6.1-4.18,11.04-9.33,11.04c-5.15,0-9.33-4.94-9.33-11.04c0-6.1,4.17-11.04,9.33-11.04
				C329.2,382.17,333.38,387.11,333.38,393.2z"/>
		</g>
	</g>
</g>
<g>
	<g>
		<g>
			<ellipse class="st1" cx="192.42" cy="393.2" rx="9.33" ry="11.04"/>
		</g>
	</g>
</g>
<path class="st0" d="M359.05,403.92c16.52-13.92,31.5-24.52,40.47-26.22l20.13-20.13c-7.18-9.05-15.62-17.15-25.04-24.33
	c-0.11-0.08-0.22-0.17-0.33-0.25c-8.36-6.33-17.49-11.92-27.23-16.79c0,0,0-0.01,0-0.01c9.98-50.73,42.66-90.4,43.89-91.87
	c0.02-0.03,0.04-0.05,0.04-0.05c-76.13-9-108.29,48.46-117.61,70.11c-0.13-0.02-0.27-0.04-0.4-0.06
	c-11.79-1.54-23.78-2.31-35.77-2.31v186.99c0.01,0,0.01,0,0.02,0c0,0,0.01,0,0.01,0c0.01,0,0.02,0,0.02,0c0,0,0,0,0,0
	c6.19,0.02,11.93,1.74,17,4.53c0,0,0,0,0,0c0.05,0.03,0.1,0.05,0.15,0.08c0.52,0.29,1.02,0.59,1.52,0.9
	C282.46,477.55,324.18,433.31,359.05,403.92z M348.52,374.61c0,54.98-49.68,36.94-49.68,36.94
	C297.71,359.88,348.52,374.61,348.52,374.61z"/>
<path class="st1" d="M221.04,294.38c-9.32-21.65-41.48-79.11-117.61-70.12c0,0,0.02,0.02,0.04,0.05c1.21,1.45,32.88,39.9,43.4,89.48
	c0,0,0,0,0,0c0.17,0.79,0.33,1.59,0.49,2.39c0,0.01,0,0.02,0.01,0.03c-9.86,4.93-19.1,10.61-27.55,17.04
	c-9.43,7.17-17.87,15.26-25.05,24.31l20.18,20.18c8.97,1.74,23.92,12.31,40.4,26.2c34.89,29.4,76.65,73.69,83.14,80.62
	c-3.39,2.11-6.41,4.74-8.92,7.8l0.02,0.02c2.9-3.54,6.48-6.52,10.54-8.77c0.03-0.02,0.07-0.04,0.1-0.05
	c5.07-2.79,10.81-4.52,16.99-4.55V292.02C245.09,292.02,232.97,292.81,221.04,294.38z M215.58,411.56c0,0-49.67,18.04-49.67-36.94
	C165.9,374.61,216.72,359.88,215.58,411.56z"/>
<path class="st2" d="M275.94,484.51c0,0-0.01,0.01-0.01,0.01c3.4,2.1,6.42,4.73,8.94,7.79l-1.35,1.35l0.02,0.02
	c0,0,0.48-0.48,1.36-1.36C282.38,489.25,279.35,486.62,275.94,484.51z"/>
<path class="st3" d="M275.93,484.52c-0.51-0.31-1.02-0.62-1.54-0.91c-0.05-0.03-0.1-0.05-0.15-0.08c0,0,0,0,0,0
	c-5.07-2.78-10.81-4.51-17-4.53c0,0,0,0,0,0c-0.01,0-0.02,0-0.03,0c0,0-0.01,0-0.01,0c-0.01,0-0.01,0-0.02,0
	c-6.18,0.03-11.92,1.76-16.99,4.55l0,0c-0.03,0.02-0.07,0.04-0.1,0.05c-0.54,0.3-1.08,0.62-1.6,0.95c-3.4,2.11-6.42,4.75-8.93,7.82
	l1.33,1.33l26.26,26.26v0.06l0.03-0.03l0.03,0.03v-0.06l26.32-26.31l1.35-1.35C282.35,489.26,279.33,486.63,275.93,484.52z"/>
<path class="st4" d="M103.43,224.27c0,0,0.02,0.02,0.04,0.05C103.44,224.29,103.43,224.27,103.43,224.27z"/>
<path class="st4" d="M147.36,316.21c0-0.01,0-0.02-0.01-0.03C147.36,316.19,147.36,316.2,147.36,316.21L147.36,316.21z"/>
<polygon class="st4" points="367.06,316.2 367.06,316.2 367.07,316.19 "/>
<path class="st4" d="M146.87,313.79C146.87,313.8,146.87,313.8,146.87,313.79C146.87,313.8,146.87,313.8,146.87,313.79z"/>
<path class="st4" d="M411,224.27c0,0-0.02,0.02-0.04,0.05C410.98,224.29,411,224.27,411,224.27z"/>
<path class="st3" d="M367.07,316.19c0,0,0,0.01,0,0.01c9.73,4.86,18.87,10.46,27.23,16.79c0.11,0.08,0.22,0.17,0.33,0.25
	c9.15-20.51,15.84-59.21,16.38-108.97c0,0-0.02,0.02-0.04,0.05C409.73,225.79,377.05,265.46,367.07,316.19z"/>
<path class="st3" d="M367.07,316.19c9.98-50.73,42.67-90.4,43.89-91.87C409.73,225.79,377.05,265.46,367.07,316.19z"/>
<path class="st3" d="M147.36,316.18c-0.16-0.8-0.32-1.6-0.49-2.39c0,0,0,0,0,0c-10.52-49.58-42.19-88.03-43.4-89.48
	c-0.02-0.03-0.04-0.05-0.04-0.05c0.54,49.77,7.23,88.48,16.39,108.98c8.45-6.43,17.69-12.11,27.55-17.04
	C147.36,316.2,147.36,316.19,147.36,316.18z"/>
<path class="st3" d="M103.47,224.32c1.21,1.45,32.88,39.9,43.4,89.48C136.35,264.22,104.68,225.77,103.47,224.32z"/>
<path class="st3" d="M146.87,313.8c0.17,0.79,0.33,1.59,0.49,2.39C147.2,315.38,147.04,314.59,146.87,313.8z"/>
<path class="st1" d="M257.21,519.98v0.06l-0.03-0.03l-0.03,0.03v-0.06l-26.26-26.26l-0.01,0.01c0,0-45.88-45.88-81.05-81.05
	c-10.42,18.13-16.38,39.15-16.38,61.56c0,68.35,55.41,123.76,123.76,123.76c0,0,0,0,0,0L257.21,519.98L257.21,519.98z"/>
<g>
	<g>
		<path class="st2" d="M443.06,448.41c-0.68-21.91,12.78-48.87,12.78-48.87c-15.34-0.72-30.74,5.04-43.91,12.37
			c21.35-45.21,86.04-78.66,86.04-78.66s73.26,70.83-11.46,151.12c7.96-34.69-3.83-64.4-3.83-64.4
			C469.65,441.34,443.06,448.41,443.06,448.41z"/>
	</g>
</g>
<path class="st0" d="M482.67,419.98c-13.03,21.36-39.62,28.43-39.62,28.43c-0.68-21.91,12.78-48.87,12.78-48.87
	c-15.34-0.72-30.74,5.04-43.91,12.37c-1.81,3.83-3.4,7.71-4.52,11.69c-5.25,18.68-14.28,37.12-26.45,52.35
	c-0.37,27.31-9.58,52.47-24.91,72.77c29.72-2.37,67.84-14.69,112.49-49.03c6.67-5.14,12.61-10.24,17.97-15.32
	C494.46,449.69,482.67,419.98,482.67,419.98z"/>
<path class="st0" d="M364.58,412.64c-35.17,35.17-81.04,81.04-81.04,81.04l-0.02-0.02l-26.31,26.31v78.02
	c40.38,0,76.24-19.34,98.83-49.27c15.32-20.3,24.53-45.47,24.91-72.77c0.01-0.57,0.02-1.14,0.02-1.72
	C380.97,451.81,375.01,430.78,364.58,412.64z"/>
<path class="st2" d="M359.05,403.92c-34.87,29.39-76.6,73.64-83.11,80.6c3.4,2.11,6.43,4.74,8.96,7.81
	c3.81-3.81,15.29-15.29,29.72-29.72l84.9-84.9C390.56,379.4,375.58,389.99,359.05,403.92z"/>
<path class="st5" d="M238.49,484.56c-6.49-6.93-48.25-51.22-83.14-80.62c-16.48-13.89-31.43-24.46-40.4-26.2l114.62,114.62
	C232.08,489.3,235.1,486.67,238.49,484.56z"/>
<g>
	<path class="st3" d="M209.55,567.62c-22.53,0-40.8,18.27-40.8,40.8h81.61C250.35,585.88,232.08,567.62,209.55,567.62z"/>
	<path class="st3" d="M303.85,567.62c-22.53,0-40.81,18.27-40.81,40.8h81.6C344.65,585.88,326.39,567.62,303.85,567.62z"/>
</g>
</svg>
